# xmcd
#
# Track frame offsets:
#	150
#	23883
#	42943
#	62120
#	73045
#	94348
#	111518
#	133708
#	162773
#	182545
#	199273
#	216013
#	235828
#	261685
#	279540
#	293573
#	310063
#	326240
#
# Disc length: 4537
#
# Revision: 2
# Processed by: cddbd v1.5.1PL0 Copyright (c) Steve Scherf et al.
# Submitted via: CDex 1.51
# Normalized: r1:TDELIM( - )
#
DISCID=1911b712
DTITLE=Various Artist - Rendez-Vous On The Jazz Boulevard 1/2
DYEAR=2003
DGENRE=Jazz
TTITLE0=Jacintha - Georgia On My Mind
TTITLE1=Beth Nielsen Chapman - Dance With Me Slow
TTITLE2=Patricia Barber - A Man And A Woman
TTITLE3=Sarah Vaughan - Mr. Lucky
TTITLE4=Josephine Cronholm - Don't Let Me Wait
TTITLE5=Ab und Zu - Love Can Hide
TTITLE6=Shirley Horn - Summertime
TTITLE7=Anne Ducros - Ode To Billie Joe
TTITLE8=Ranee Lee - My Babe Just Cares For Me
TTITLE9=Jane Monheit - Please Be Kind
TTITLE10=Ella Fitzgerald - Blue Skies
TTITLE11=Fleurine - High In The Sky
TTITLE12=David Klein Quintet feat. Miriam Klein - Diamonds Are Girls Best Friend
TTITLE13=Diane Schuur - Sunday Kind Of Love
TTITLE14=Ruth Cameron - Waitin'For The Train To Come In
TTITLE15=Helena Azul - Ceu Azulou
TTITLE16=Gabriela Anders - Brasileira
TTITLE17=Gal Costa - So Louca
EXTD=YEAR: 2003
EXTT0=
EXTT1=
EXTT2=
EXTT3=
EXTT4=
EXTT5=
EXTT6=
EXTT7=
EXTT8=
EXTT9=
EXTT10=
EXTT11=
EXTT12=
EXTT13=
EXTT14=
EXTT15=
EXTT16=
EXTT17=
PLAYORDER=
